<mxfile host="app.diagrams.net" modified="2024-03-22T09:07:47.709Z" agent="Mozilla/5.0 (X11; Linux x86_64) AppleWebKit/537.36 (KHTML, like Gecko) Chrome/123.0.0.0 Safari/537.36" version="24.0.7" etag="AlxXQie2K_F1ZbmlCZO7" type="github">
  <diagram name="第 1 页" id="XebjetOLZyRSMkiADRcJ">
    <mxGraphModel>
      <root>
        <mxCell id="0" />
        <mxCell id="1" parent="0" />
      </root>
    </mxGraphModel>
  </diagram>
</mxfile>
